<?xml version="1.0" standalone="no"?>
<!DOCTYPE svg PUBLIC "-//W3C//DTD SVG 20010904//EN"
 "http://www.w3.org/TR/2001/REC-SVG-20010904/DTD/svg10.dtd">
<svg version="1.0" xmlns="http://www.w3.org/2000/svg"
 width="421.000000pt" height="421.000000pt" viewBox="0 0 421.000000 421.000000"
 preserveAspectRatio="xMidYMid meet">
<metadata>
Created by potrace 1.11, written by Peter Selinger 2001-2013
</metadata>
<g transform="translate(0.000000,421.000000) scale(0.100000,-0.100000)"
fill="#000000" stroke="none">
<path d="M1576 3593 c-108 -22 -241 -91 -320 -164 -10 -10 -38 -31 -60 -46
-44 -30 -146 -130 -186 -182 -34 -45 -98 -164 -126 -234 -13 -32 -39 -74 -59
-94 -62 -62 -87 -132 -87 -243 0 -52 3 -108 6 -125 2 -16 8 -50 11 -75 13 -95
35 -151 77 -192 24 -24 46 -57 54 -84 l13 -44 -30 16 c-40 20 -68 15 -93 -19
-44 -60 -13 -204 91 -428 52 -109 91 -155 125 -145 10 3 26 9 37 12 15 5 24
-7 49 -60 33 -71 103 -168 163 -227 48 -48 166 -139 179 -139 5 0 10 -4 10 -8
0 -4 22 -19 50 -33 27 -13 50 -28 50 -32 0 -5 5 -5 10 -2 6 3 10 3 10 -2 0 -7
50 -34 70 -39 3 0 17 -6 31 -12 64 -26 153 -43 229 -44 130 -1 345 126 525
309 47 48 85 90 85 94 0 3 11 19 25 35 14 16 25 32 25 36 0 4 16 32 35 63 20
30 32 55 28 55 -4 0 -3 4 3 8 13 8 60 104 56 115 -1 4 3 7 9 7 5 0 7 5 4 10
-3 6 -1 10 5 10 6 0 8 5 5 10 -3 6 -2 10 2 10 5 0 17 16 27 35 22 41 42 49 97
40 36 -6 43 -4 72 27 26 28 48 77 63 143 2 6 5 20 8 33 24 96 35 178 31 247
-8 156 -108 244 -187 165 -16 -16 -31 -30 -33 -30 -10 0 3 50 24 93 22 45 23
57 18 165 -3 64 -8 131 -11 147 -4 17 -11 52 -17 80 -12 58 -47 122 -84 150
-55 42 -92 84 -135 155 -42 70 -178 217 -229 250 -13 8 -33 22 -45 31 -29 22
-166 88 -193 94 -49 11 -65 14 -124 29 -33 9 -75 18 -92 21 -18 3 -40 8 -49
11 -41 12 -188 11 -252 -3z"/>
<path d="M3262 1950 c-38 -17 -66 -42 -113 -98 -32 -39 -50 -113 -49 -202 1
-36 2 -74 2 -85 1 -56 -16 -87 -59 -109 -41 -21 -75 -26 -90 -14 -7 6 -13 7
-13 4 0 -4 -8 -2 -17 3 -25 13 -75 21 -179 28 -74 4 -97 2 -127 -12 -20 -9
-37 -24 -37 -31 0 -8 -4 -14 -8 -14 -5 0 -9 -6 -10 -12 0 -7 -3 -24 -6 -38 -6
-27 29 -110 47 -110 7 -1 -2 -7 -19 -14 -78 -34 -98 -139 -37 -195 l29 -26
-24 -20 c-51 -44 -44 -135 15 -178 33 -24 33 -24 14 -46 -27 -31 -22 -102 9
-136 13 -14 29 -25 37 -25 7 0 13 -4 13 -10 0 -5 3 -9 8 -8 4 1 22 -6 39 -15
18 -10 35 -17 38 -17 3 0 6 0 8 -1 5 -2 35 -9 92 -24 85 -21 137 -21 304 0
127 16 263 73 337 143 52 48 105 117 97 126 -3 3 -1 6 6 6 7 0 9 5 6 10 -3 6
-3 10 2 10 14 0 35 81 40 152 7 83 -19 175 -74 265 -162 266 -168 280 -159
361 3 30 12 68 20 85 66 147 76 186 50 211 -52 52 -127 66 -192 36z"/>
</g>
</svg>
